HIERARCHY
ROOT ui
{
	 OFFSET 0 0 0
	 CHANNELS 3 XPosition YPosition Z Position
	 EndSite
	 {
	 OFFSET 0 -1 0
	 }
}
ROOT li
{
	 OFFSET 0 0 0
	 CHANNELS 3 XPosition YPosition Z Position
	 EndSite
	 {
	 OFFSET 0 -1 0
	 }
}
ROOT ul
{
	 OFFSET 0 0 0
	 CHANNELS 3 XPosition YPosition Z Position
	 EndSite
	 {
	 OFFSET 0 -1 0
	 }
}
ROOT ll
{
	 OFFSET 0 0 0
	 CHANNELS 3 XPosition YPosition Z Position
	 EndSite
	 {
	 OFFSET 0 -1 0
	 }
}
ROOT tt
{
	 OFFSET 0 0 0
	 CHANNELS 3 XPosition YPosition Z Position
	 EndSite
	 {
	 OFFSET 0 -1 0
	 }
}
ROOT tb
{
	 OFFSET 0 0 0
	 CHANNELS 3 XPosition YPosition Z Position
	 EndSite
	 {
	 OFFSET 0 -1 0
	 }
}
ROOT td
{
	 OFFSET 0 0 0
	 CHANNELS 3 XPosition YPosition Z Position
	 EndSite
	 {
	 OFFSET 0 -1 0
	 }
}
ROOT v
{
	 OFFSET 0 0 0
	 CHANNELS 3 XPosition YPosition Z Position
	 EndSite
	 {
	 OFFSET 0 -1 0
	 }
}
ROOT bn
{
	 OFFSET 0 0 0
	 CHANNELS 3 XPosition YPosition Z Position
	 EndSite
	 {
	 OFFSET 0 -1 0
	 }
}
MOTION
Frames: 24
Frame Time: 0.002
0.023873254776000975	0.004321921825408936	0		0.5383741455078125	-2.3417255859375	0		-0.9692537841796875	-0.004144114971160889	0		-0.6058914794921875	-2.259736572265625	0		1.6143466796875	-0.5789740600585938	0		3.324004150390625	-0.31037493896484375	0		4.55469482421875	-0.14018214416503907	0		5.96692236328125	0.4187328796386719	0		-0.2504599151611328	5.9082275390625	0		
-0.005257741928100586	4.679990112781525E-4	0		0.5004418640136719	-2.3334755859375	0		-0.9824521484375	-0.01518612289428711	0		-0.6099525756835937	-2.264851806640625	0		1.6711751708984375	-0.5895936279296875	0		3.3227587890625	-0.3273785705566406	0		4.548357421875	-0.16609368896484375	0		5.97819970703125	0.40130947875976564	0		-0.2658687744140625	5.89723046875	0		
0.01665479278564453	-0.0028833301067352295	0		0.49843658447265626	-2.33658056640625	0		-1.057506103515625	-0.014647132873535156	0		-0.6469014282226563	-2.261662109375	0		1.6071597900390624	-0.5870673217773438	0		3.327645263671875	-0.33445205688476565	0		4.54830517578125	-0.16607728576660155	0		5.9781591796875	0.4014258728027344	0		-0.26613153076171875	5.89707958984375	0		
-0.009367729187011719	-0.002787625074386597	0		0.48044326782226565	-2.341544921875	0		-1.0466248779296874	-0.02493783187866211	0		-0.5959098510742188	-2.2683193359375	0		1.6789716796875	-0.6068489379882812	0		3.330404541015625	-0.3585213623046875	0		4.5650869140625	-0.18723936462402344	0		5.97814306640625	0.4015068054199219	0		-0.2512462463378906	5.90777587890625	0		
0.01663820457458496	-0.0031964020729064943	0		0.4756451416015625	-2.328645751953125	0		-1.0356270751953125	-0.026236276626586914	0		-0.6756594848632812	-2.249743408203125	0		1.6239996337890625	-0.6064393310546875	0		3.33454541015625	-0.345620361328125	0		4.574080078125	-0.1893472900390625	0		5.97814892578125	0.4015438842773438	0		-0.2514198303222656	5.90760595703125	0		
-0.00226132607460022	0.0038102409839630125	0		0.5006942749023438	-2.334041259765625	0		-1.0406209716796875	-0.029390241622924803	0		-0.5906907348632813	-2.263736572265625	0		1.804900146484375	-0.6232753295898438	0		3.379378662109375	-0.3681253662109375	0		4.57700537109375	-0.2014222412109375	0		5.978173828125	0.40153060913085936	0		-0.2515486602783203	5.90742626953125	0		
-0.009272406578063965	-0.003306464910507202	0		0.49877621459960936	-2.337193359375	0		-1.040565673828125	-0.02959784507751465	0		-0.6774843139648438	-2.25311474609375	0		1.8019320068359375	-0.6273869018554687	0		3.37944189453125	-0.3682279052734375	0		4.5819892578125	-0.2095430450439453	0		5.9853583984375	0.40475848388671876	0		-0.26673736572265627	5.89637890625	0		
-0.00920185661315918	-0.0034989409446716307	0		0.498892333984375	-2.337375732421875	0		-1.0385792236328124	-0.03882884979248047	0		-0.6393903198242188	-2.25567724609375	0		1.7978458251953124	-0.645505615234375	0		3.372435302734375	-0.3772880554199219	0		4.60680908203125	-0.23687957763671874	0		5.9804970703125	0.4255021057128906	0		-0.26678201293945314	5.896181640625	0		
-0.009119231224060059	-0.0036997990608215333	0		0.4809635009765625	-2.342400146484375	0		-1.03849609375	-0.03904500198364258	0		-0.6543767700195312	-2.266746337890625	0		1.812712158203125	-0.6698192749023437	0		3.363458251953125	-0.38435394287109376	0		4.6008203125	-0.24495523071289063	0		5.98546826171875	0.404436767578125	0		-0.2667870178222656	5.89597705078125	0		
-0.0019609529972076417	0.003026716947555542	0		0.5210216674804687	-2.348977294921875	0		-1.0264969482421875	-0.04937477111816406	0		-0.64922412109375	-2.26300732421875	0		1.812811767578125	-0.6700088500976562	0		3.41138427734375	-0.4029772033691406	0		4.6148212890625	-0.25524798583984376	0		5.98916796875	0.4213990173339844	0		-0.24868756103515624	5.90259765625	0		
0.002170248031616211	0.00577685022354126	0		0.4852312622070313	-2.338850341796875	0		-1.0423365478515625	-0.04344227981567383	0		-0.6699593505859375	-2.247026611328125	0		1.7997783203125	-0.6850901489257812	0		3.39947119140625	-0.40506088256835937	0		4.61694482421875	-0.2534572906494141	0		5.9806962890625	0.42473529052734377	0		-0.2515745239257812	5.906412109375	0		
-0.008808441162109375	-0.004335003852844238	0		0.531211181640625	-2.353496337890625	0		-1.0512872314453126	-0.05057236480712891	0		-0.6639589233398437	-2.25929736328125	0		1.7867430419921875	-0.70118408203125	0		3.40147314453125	-0.41729647827148436	0		4.6209462890625	-0.2657123413085937	0		5.97715185546875	0.4088681945800781	0		-0.266558837890625	5.895337890625	0		
-0.008681161880493164	-0.0045519680976867675	0		0.47737347412109377	-2.348210693359375	0		-1.0511602783203124	-0.050783023834228516	0		-0.6539207153320312	-2.267603759765625	0		1.77472607421875	-0.716298828125	0		3.4024853515625	-0.42954290771484377	0		4.630921875	-0.28205035400390627	0		5.97724267578125	0.4084298400878906	0		-0.2663958740234375	5.89512255859375	0		
0.012498197555541992	-9.661530256271362E-4	0		0.5133843994140626	-2.3597705078125	0		-1.0391124267578125	-0.06110012817382812	0		-0.6917835693359375	-2.26545654296875	0		1.7627110595703126	-0.7324229736328125	0		3.438424560546875	-0.4511360473632812	0		4.6469853515625	-0.2904705200195313	0		5.97734375	0.4079346008300781	0		-0.2510825958251953	5.905767578125	0		
-0.0013114490509033203	0.0019503740072250367	0		0.4595554504394531	-2.354486572265625	0		-1.038951904296875	-0.06129729461669922	0		-0.6866135864257813	-2.26070703125	0		1.7497197265625	-0.7475446166992188	0		3.419654541015625	-0.44323068237304686	0		4.64714208984375	-0.2907638854980469	0		5.98038525390625	0.42635125732421875	0		-0.2488400421142578	5.9035380859375	0		
0.024870189666748047	0.0014955459833145143	0		0.5047121887207031	-2.352130615234375	0		-1.0387705078125	-0.06148406982421875	0		-0.688499755859375	-2.262882568359375	0		1.7756868896484375	-0.7690374145507812	0		3.44368505859375	-0.45874197387695315	0		4.6641103515625	-0.31323614501953123	0		5.97631689453125	0.4466139831542969	0		-0.2505072326660156	5.9053525390625	0		
-0.005886166095733642	0.005585089206695557	0		0.47383465576171874	-2.354053955078125	0		-1.042595947265625	-0.06462025451660157	0		-0.6534061279296876	-2.26839697265625	0		1.7566630859375	-0.7911080932617187	0		3.45786669921875	-0.4601711120605469	0		4.6712490234375	-0.31963232421875	0		5.9835947265625	0.4458153076171875	0		-0.24816009521484375	5.90313818359375	0		
0.018232795715332033	-0.005835254192352295	0		0.507857666015625	-2.367584716796875	0		-1.0423739013671875	-0.06477986907958984	0		-0.6952821044921875	-2.271170654296875	0		1.7477576904296874	-0.8022726440429687	0		3.4429248046875	-0.476333740234375	0		4.67638671875	-0.32802435302734373	0		5.9837548828125	0.445142822265625	0		-0.26284808349609373	5.892095703125	0		
-0.007526220798492432	-0.005771008968353272	0		0.48102957153320314	-2.365529296875	0		-1.103190673828125	-0.07034253692626953	0		-0.6643472290039063	-2.294621337890625	0		1.764662353515625	-0.834680908203125	0		3.449080322265625	-0.4837016906738281	0		4.68340478515625	-0.3504471740722656	0		5.98392529296875	0.4444381103515625	0		-0.24630316162109375	5.90077001953125	0		
0.0038192939758300783	0.0039540200233459475	0		0.5122081298828125	-2.363015625	0		-1.08983837890625	-0.05959065628051758	0		-0.6851824951171875	-2.293562255859375	0		1.795752197265625	-0.8482205200195313	0		3.480251708984375	-0.4903123779296875	0		4.69262109375	-0.35289950561523437	0		5.9877314453125	0.45919366455078126	0		-0.24382386779785156	5.898591796875	0		
0.004074841022491455	0.003799837112426758	0		0.5083058776855469	-2.36815478515625	0		-1.0176275024414063	-0.06438571166992188	0		-0.6141329956054687	-2.3043662109375	0		1.777757568359375	-0.870283935546875	0		3.482455322265625	-0.4936470947265625	0		4.69980224609375	-0.35933843994140624	0		5.9842861328125	0.4429569091796875	0		-0.24428489685058594	5.89945849609375	0		
3.000180125236511E-4	7.025359869003296E-4	0		0.5043916320800781	-2.373277587890625	0		-1.0173770141601564	-0.0644700698852539	0		-0.6460910034179688	-2.31416162109375	0		1.7807449951171874	-0.8935377197265625	0		3.472452880859375	-0.517861572265625	0		4.69292236328125	-0.3716440734863281	0		5.9795703125	0.46653033447265624	0		-0.2447227325439453	5.9003447265625	0		
-0.011482984542846679	-0.0022965309619903565	0		0.5093811645507812	-2.38646875	0		-1.017135009765625	-0.06453031921386719	0		-0.613041259765625	-2.321562255859375	0		1.78865966796875	-0.9228269653320312	0		3.488552734375	-0.5303216552734376	0		4.7050107421875	-0.38613180541992187	0		5.9803134765625	0.429417236328125	0		-0.2431650390625	5.899232421875	0		
-0.006291336059570313	-0.006438333034515381	0		0.4893961181640625	-2.394396484375	0		-1.07696337890625	-0.069978271484375	0		-0.679990966796875	-2.32596533203125	0		1.8197086181640625	-0.9363272705078125	0		3.49960595703125	-0.545725341796875	0		4.7001416015625	-0.39445025634765624	0		5.97991064453125	0.4649942626953125	0		-0.24259048461914062	5.89915283203125	0		
